REM DIRINDEX 1\4,1\2\5,1\2\6,1\3\7,1\3\8
REM DIRNAME folder01,folder02,folder03,folder04,folder05,folder06,folder07,folder08
TITLE ""
FILE "060_Day30_Check3_Sentences.mp3" MP3
  TRACK 01 AUDIO
    TITLE "0:"
    INDEX 01 00:00:00
  TRACK 02 AUDIO
    TITLE "4:cjc124_1950"
    INDEX 01 00:00:25
  TRACK 03 AUDIO
    TITLE "0:"
    INDEX 01 00:01:73
  TRACK 04 AUDIO
    TITLE "7:cjc124_1951"
    INDEX 01 00:02:47
  TRACK 05 AUDIO
    TITLE "0:"
    INDEX 01 00:07:35
  TRACK 06 AUDIO
    TITLE "8:cjc124_1952"
    INDEX 01 00:07:49
  TRACK 07 AUDIO
    TITLE "0:"
    INDEX 01 00:10:49
  TRACK 08 AUDIO
    TITLE "7:cjc124_1953"
    INDEX 01 00:11:11
  TRACK 09 AUDIO
    TITLE "0:"
    INDEX 01 00:14:23
  TRACK 10 AUDIO
    TITLE "8:cjc124_1954"
    INDEX 01 00:14:39
  TRACK 11 AUDIO
    TITLE "0:"
    INDEX 01 00:17:25
  TRACK 12 AUDIO
    TITLE "7:cjc124_1955"
    INDEX 01 00:17:70
  TRACK 13 AUDIO
    TITLE "0:"
    INDEX 01 00:21:49
  TRACK 14 AUDIO
    TITLE "8:cjc124_1956"
    INDEX 01 00:21:64
  TRACK 15 AUDIO
    TITLE "0:"
    INDEX 01 00:24:41
  TRACK 16 AUDIO
    TITLE "7:cjc124_1957"
    INDEX 01 00:25:03
  TRACK 17 AUDIO
    TITLE "0:"
    INDEX 01 00:28:60
  TRACK 18 AUDIO
    TITLE "8:cjc124_1958"
    INDEX 01 00:28:74
  TRACK 19 AUDIO
    TITLE "0:"
    INDEX 01 00:32:25
  TRACK 20 AUDIO
    TITLE "7:cjc124_1959"
    INDEX 01 00:32:60
  TRACK 21 AUDIO
    TITLE "0:"
    INDEX 01 00:36:40
  TRACK 22 AUDIO
    TITLE "8:cjc124_1960"
    INDEX 01 00:36:54
  TRACK 23 AUDIO
    TITLE "0:"
    INDEX 01 00:39:52
  TRACK 24 AUDIO
    TITLE "7:cjc124_1961"
    INDEX 01 00:40:21
  TRACK 25 AUDIO
    TITLE "0:"
    INDEX 01 00:43:52
  TRACK 26 AUDIO
    TITLE "8:cjc124_1962"
    INDEX 01 00:43:66
  TRACK 27 AUDIO
    TITLE "0:"
    INDEX 01 00:46:37
  TRACK 28 AUDIO
    TITLE "7:cjc124_1963"
    INDEX 01 00:46:74
  TRACK 29 AUDIO
    TITLE "0:"
    INDEX 01 00:49:43
  TRACK 30 AUDIO
    TITLE "8:cjc124_1964"
    INDEX 01 00:49:74
  TRACK 31 AUDIO
    TITLE "0:"
    INDEX 01 00:52:16
  TRACK 32 AUDIO
    TITLE "7:cjc124_1965"
    INDEX 01 00:52:53
  TRACK 33 AUDIO
    TITLE "0:"
    INDEX 01 00:56:25
  TRACK 34 AUDIO
    TITLE "8:cjc124_1966"
    INDEX 01 00:56:41
  TRACK 35 AUDIO
    TITLE "0:"
    INDEX 01 00:59:04
  TRACK 36 AUDIO
    TITLE "7:cjc124_1967"
    INDEX 01 00:59:41
  TRACK 37 AUDIO
    TITLE "0:"
    INDEX 01 01:02:06
  TRACK 38 AUDIO
    TITLE "8:cjc124_1968"
    INDEX 01 01:02:22
  TRACK 39 AUDIO
    TITLE "0:"
    INDEX 01 01:05:34
  TRACK 40 AUDIO
    TITLE "7:cjc124_1969"
    INDEX 01 01:05:71
  TRACK 41 AUDIO
    TITLE "0:"
    INDEX 01 01:07:63
  TRACK 42 AUDIO
    TITLE "8:cjc124_1970"
    INDEX 01 01:08:03
  TRACK 43 AUDIO
    TITLE "0:"
    INDEX 01 01:10:26
  TRACK 44 AUDIO
    TITLE "7:cjc124_1971"
    INDEX 01 01:10:63
  TRACK 45 AUDIO
    TITLE "0:"
    INDEX 01 01:14:37
  TRACK 46 AUDIO
    TITLE "8:cjc124_1972"
    INDEX 01 01:14:51
  TRACK 47 AUDIO
    TITLE "0:"
    INDEX 01 01:17:49
  TRACK 48 AUDIO
    TITLE "7:cjc124_1973"
    INDEX 01 01:18:13
  TRACK 49 AUDIO
    TITLE "0:"
    INDEX 01 01:20:65
  TRACK 50 AUDIO
    TITLE "8:cjc124_1974"
    INDEX 01 01:21:06
  TRACK 51 AUDIO
    TITLE "0:"
    INDEX 01 01:23:20
  TRACK 52 AUDIO
    TITLE "7:cjc124_1975"
    INDEX 01 01:23:62
  TRACK 53 AUDIO
    TITLE "0:"
    INDEX 01 01:26:46
  TRACK 54 AUDIO
    TITLE "8:cjc124_1976"
    INDEX 01 01:26:60
  TRACK 55 AUDIO
    TITLE "0:"
    INDEX 01 01:29:64
  TRACK 56 AUDIO
    TITLE "7:cjc124_1977"
    INDEX 01 01:30:26
  TRACK 57 AUDIO
    TITLE "0:"
    INDEX 01 01:33:25
  TRACK 58 AUDIO
    TITLE "8:cjc124_1978"
    INDEX 01 01:33:38
  TRACK 59 AUDIO
    TITLE "0:"
    INDEX 01 01:36:64
  TRACK 60 AUDIO
    TITLE "7:cjc124_1979"
    INDEX 01 01:37:26
  TRACK 61 AUDIO
    TITLE "0:"
    INDEX 01 01:40:05
  TRACK 62 AUDIO
    TITLE "8:cjc124_1980"
    INDEX 01 01:40:21
  TRACK 63 AUDIO
    TITLE "0:"
    INDEX 01 01:42:26
  TRACK 64 AUDIO
    TITLE "7:cjc124_1981"
    INDEX 01 01:42:63
  TRACK 65 AUDIO
    TITLE "0:"
    INDEX 01 01:45:67
  TRACK 66 AUDIO
    TITLE "8:cjc124_1982"
    INDEX 01 01:46:19
  TRACK 67 AUDIO
    TITLE "0:"
    INDEX 01 01:49:26
